<?xml version="1.0" encoding="UTF-8" standalone="no"?>
<svg
   xmlns:dc="http://purl.org/dc/elements/1.1/"
   xmlns:cc="http://creativecommons.org/ns#"
   xmlns:rdf="http://www.w3.org/1999/02/22-rdf-syntax-ns#"
   xmlns:svg="http://www.w3.org/2000/svg"
   xmlns="http://www.w3.org/2000/svg"
   id="svg2157"
   version="1.1"
   viewBox="0 0 6 6"
   height="6mm"
   width="6mm">
  <defs
     id="defs2151">
    <clipPath
       clipPathUnits="userSpaceOnUse"
       id="clipPath368">
      <path
         d="M 0,0 H 1224 V 792 H 0 Z"
         id="path366" />
    </clipPath>
  </defs>
  <metadata
     id="metadata2154">
    <rdf:RDF>
      <cc:Work
         rdf:about="">
        <dc:format>image/svg+xml</dc:format>
        <dc:type
           rdf:resource="http://purl.org/dc/dcmitype/StillImage" />
        <dc:title></dc:title>
      </cc:Work>
    </rdf:RDF>
  </metadata>
  <g
     id="layer1">
    <g
       id="g362"
       transform="matrix(0.35277777,0,0,-0.35277777,6.8318933,423.97338)">
      <g
         id="g364"
         clip-path="url(#clipPath368)"
         transform="translate(-3.2132922,8.5687792)" />
      <g
         id="layer2">
        <g
           id="g374"
           transform="translate(-18.265913,1197.9757)">
          <path
             d="m 0,0 c 0,0 -0.693,-0.252 -0.441,-0.945 l 3.855,-10.591 c 0,0 0.252,-0.693 0.945,-0.441 l 7.128,2.594 c 0,0 0.692,0.252 0.44,0.945 L 8.072,2.154 c 0,0 -0.252,0.692 -0.945,0.44 z"
             style="fill:#231f20;fill-opacity:1;fill-rule:nonzero;stroke:none"
             id="path376" />
        </g>
        <g
           id="g382"
           transform="translate(-14.194508,1185.7545)">
          <path
             d="M 0,0 C -0.215,0 -0.413,0.078 -0.575,0.232 -0.752,0.4 -0.828,0.599 -0.836,0.621 l -3.855,10.59 c -0.127,0.351 -0.068,0.68 0.167,0.928 0.167,0.177 0.365,0.253 0.388,0.261 l 7.126,2.594 c 0.691,0.25 1.08,-0.253 1.189,-0.554 L 8.035,3.849 C 8.285,3.158 7.782,2.768 7.481,2.659 L 0.353,0.065 C 0.232,0.021 0.113,0 0,0 Z M -4.006,12.043 C -4.093,12.01 -4.509,11.824 -4.333,11.341 L -0.478,0.751 C -0.447,0.665 -0.262,0.246 0.223,0.423 L 7.35,3.017 C 7.435,3.049 7.853,3.234 7.677,3.719 L 3.822,14.31 C 3.79,14.395 3.603,14.813 3.12,14.637 Z"
             style="fill:none;stroke:#ffffff;stroke-width:0.25;stroke-linecap:butt;stroke-linejoin:miter;stroke-miterlimit:10;stroke-dasharray:none;stroke-opacity:1"
             id="path384" />
        </g>
        <g
           id="g386"
           transform="translate(-10.99461,1201.3417)">
          <path
             d="m 0,0 c 0,0 -0.732,0.09 -0.822,-0.642 l -1.373,-11.189 c 0,0 -0.09,-0.732 0.641,-0.822 l 7.531,-0.925 c 0,0 0.732,-0.09 0.822,0.642 l 1.374,11.19 c 0,0 0.09,0.731 -0.642,0.821 z"
             style="fill:#ffffff;fill-opacity:1;fill-rule:nonzero;stroke:none"
             id="path388" />
        </g>
      </g>
    </g>
  </g>
</svg>
