<?xml version="1.0" encoding="UTF-8" standalone="no"?>
<svg
   xmlns:dc="http://purl.org/dc/elements/1.1/"
   xmlns:cc="http://creativecommons.org/ns#"
   xmlns:rdf="http://www.w3.org/1999/02/22-rdf-syntax-ns#"
   xmlns:svg="http://www.w3.org/2000/svg"
   xmlns="http://www.w3.org/2000/svg"
   id="svg2157"
   version="1.1"
   viewBox="0 0 6 6"
   height="6mm"
   width="6mm">
  <defs
     id="defs2151">
    <clipPath
       clipPathUnits="userSpaceOnUse"
       id="clipPath368">
      <path
         d="M 0,0 H 1224 V 792 H 0 Z"
         id="path366" />
    </clipPath>
  </defs>
  <metadata
     id="metadata2154">
    <rdf:RDF>
      <cc:Work
         rdf:about="">
        <dc:format>image/svg+xml</dc:format>
        <dc:type
           rdf:resource="http://purl.org/dc/dcmitype/StillImage" />
        <dc:title></dc:title>
      </cc:Work>
    </rdf:RDF>
  </metadata>
  <g
     id="layer1">
    <g
       id="g362"
       transform="matrix(0.35277777,0,0,-0.35277777,6.8318933,423.97338)">
      <g
         id="g364"
         clip-path="url(#clipPath368)"
         transform="translate(-3.2132922,8.5687792)" />
      <g
         id="layer2">
        <g
           id="g382"
           transform="translate(-14.241027,1185.7545)">
          <path
             d="M 0,0 C -0.215,0 -0.413,0.078 -0.575,0.232 -0.752,0.4 -0.828,0.599 -0.836,0.621 l -3.855,10.59 c -0.127,0.351 -0.068,0.68 0.167,0.928 0.167,0.177 0.365,0.253 0.388,0.261 l 7.126,2.594 c 0.691,0.25 1.08,-0.253 1.189,-0.554 L 8.035,3.849 C 8.285,3.158 7.782,2.768 7.481,2.659 L 0.353,0.065 C 0.232,0.021 0.113,0 0,0 Z M -4.006,12.043 C -4.093,12.01 -4.509,11.824 -4.333,11.341 L -0.478,0.751 C -0.447,0.665 -0.262,0.246 0.223,0.423 L 7.35,3.017 C 7.435,3.049 7.853,3.234 7.677,3.719 L 3.822,14.31 C 3.79,14.395 3.603,14.813 3.12,14.637 Z"
             style="fill:none;stroke:#ffffff;stroke-width:0.25;stroke-linecap:butt;stroke-linejoin:miter;stroke-miterlimit:10;stroke-dasharray:none;stroke-opacity:1"
             id="path384" />
        </g>
        <g
           id="g386"
           transform="translate(-11.041129,1201.3417)">
          <path
             d="m 0,0 c 0,0 -0.732,0.09 -0.822,-0.642 l -1.373,-11.189 c 0,0 -0.09,-0.732 0.641,-0.822 l 7.531,-0.925 c 0,0 0.732,-0.09 0.822,0.642 l 1.374,11.19 c 0,0 0.09,0.731 -0.642,0.821 z"
             style="fill:#ffffff;fill-opacity:1;fill-rule:nonzero;stroke:none"
             id="path388" />
        </g>
        <g
           id="g2967"
           transform="translate(-18.247027,1197.7975)">
          <path
             d="m 0,0 c 0,0 -0.693,-0.252 -0.441,-0.945 l 3.855,-10.591 c 0,0 0.252,-0.693 0.945,-0.441 l 7.128,2.594 c 0,0 0.692,0.252 0.44,0.945 L 8.072,2.154 c 0,0 -0.252,0.692 -0.945,0.44 z"
             style="fill:#231f20;fill-opacity:1;fill-rule:nonzero;stroke:none"
             id="path2969" />
        </g>
        <g
           id="g2971"
           transform="translate(-14.175651,1185.5763)">
          <path
             d="M 0,0 C -0.215,0 -0.413,0.078 -0.575,0.232 -0.752,0.4 -0.828,0.599 -0.836,0.621 l -3.855,10.59 c -0.127,0.351 -0.068,0.68 0.167,0.928 0.167,0.177 0.365,0.253 0.388,0.261 l 7.126,2.594 c 0.691,0.25 1.08,-0.253 1.189,-0.554 L 8.035,3.849 C 8.285,3.158 7.782,2.768 7.481,2.659 L 0.353,0.065 C 0.232,0.021 0.113,0 0,0 M -4.006,12.043 C -4.093,12.01 -4.509,11.824 -4.333,11.341 L -0.479,0.751 C -0.447,0.665 -0.262,0.246 0.223,0.423 L 7.35,3.017 C 7.435,3.049 7.853,3.234 7.677,3.719 L 3.822,14.31 C 3.79,14.395 3.603,14.813 3.12,14.637 Z"
             style="fill:#231f20;fill-opacity:1;fill-rule:nonzero;stroke:none"
             id="path2973" />
        </g>
        <g
           id="g2975"
           transform="translate(-10.975776,1201.1636)">
          <path
             d="m 0,0 c 0,0 -0.732,0.09 -0.822,-0.642 l -1.373,-11.189 c 0,0 -0.09,-0.732 0.641,-0.822 l 7.531,-0.925 c 0,0 0.732,-0.09 0.822,0.642 l 1.374,11.19 c 0,0 0.09,0.731 -0.642,0.821 z"
             style="fill:#ffffff;fill-opacity:1;fill-rule:nonzero;stroke:none"
             id="path2977" />
        </g>
        <g
           id="g2979"
           transform="translate(-4.9251511,1187.3927)">
          <path
             d="M 0,0 C -0.056,0 -0.092,0.004 -0.097,0.005 L -7.628,0.93 c -0.727,0.088 -0.845,0.715 -0.806,1.033 l 1.372,11.189 c 0.09,0.728 0.713,0.852 1.035,0.808 l 7.531,-0.926 c 0.37,-0.045 0.637,-0.247 0.751,-0.569 0.081,-0.229 0.058,-0.44 0.056,-0.463 L 0.937,0.811 C 0.903,0.544 0.795,0.336 0.611,0.193 0.397,0.025 0.138,0 0,0 m -6.144,13.586 c -0.159,0 -0.488,-0.053 -0.541,-0.481 L -8.057,1.916 C -8.067,1.826 -8.091,1.369 -7.581,1.307 L -0.05,0.382 C 0.036,0.37 0.496,0.345 0.56,0.858 l 1.374,11.19 c 0.009,0.09 0.034,0.546 -0.477,0.609 l -7.53,0.925 c -0.015,0.002 -0.04,0.004 -0.071,0.004"
             style="fill:#231f20;fill-opacity:1;fill-rule:nonzero;stroke:none"
             id="path2981" />
        </g>
      </g>
    </g>
  </g>
</svg>
